# File created by Blade
# Date/Time:  Wed Apr 08 14:54:55 2015
#---------------------------------------------------------
:version 1.10
:name HOM
:units
  mass 1.0
  length 1.000000
  angle deg
:documentation
     Acclaim Skeleton File
:root
   axis xyz
   order TX TY TZ RX RY RZ
   position 0.000000 0.000000 0.000000
   orientation 0 0 0
:bonedata
   begin
      id 1
      name Spine_dum
      direction 0.000000 1.000000 0.000000
      length 4.885285
      axis 0.0 0.0 0.0 xyz
   end
   begin
      id 2
      name LeftUpLeg_dum
      direction 1.000000 0.000000 0.000000
      length 2.672193
      axis 0.0 0.0 0.0 xyz
   end
   begin
      id 3
      name RightUpLeg_dum
      direction -1.000000 0.000000 0.000000
      length 2.672193
      axis 0.0 0.0 0.0 xyz
   end
   begin
      id 4
      name Spine
      direction 0.000000 1.000000 0.000000
      length 0.000000
      axis 0.0 0.0 0.0 xyz
      dof rx ry rz
   end
   begin
      id 5
      name Spine_dum1
      direction 0.000000 1.000000 0.000000
      length 16.494159
      axis 0.0 0.0 0.0 xyz
   end
   begin
      id 6
      name Spine_dum2
      direction 0.000000 1.000000 0.000000
      length 10.663448
      axis 0.0 0.0 0.0 xyz
   end
   begin
      id 7
      name Spine_dum3
      direction 0.000000 1.000000 0.000000
      length 10.663448
      axis 0.0 0.0 0.0 xyz
   end
   begin
      id 8
      name Head
      direction 0.000000 1.000000 0.000000
      length 4.527550
      axis 0.0 0.0 0.0 xyz
      dof rx ry rz
   end
   begin
      id 9
      name LeftShoulder
      direction 1.000000 0.000000 0.000000
      length 7.531907
      axis 0.0 0.0 -90.0 xyz
      dof rx ry rz
   end
   begin
      id 10
      name LeftArm
      direction 1.000000 0.000000 0.000000
      length 10.229199
      axis 0.0 0.0 -90.0 xyz
      dof rx ry rz
   end
   begin
      id 11
      name LeftForeArm
      direction 1.000000 0.000000 0.000000
      length 8.673495
      axis 0.0 0.0 -90.0 xyz
      dof ry rz rx
   end
   begin
      id 12
      name LeftHand
      direction 0.000000 0.000000 0.000000
      length 0.000000
      axis 0.0 0.0 -90.0 xyz
      dof rx ry rz
   end
   begin
      id 13
      name LeftHand_dum1
      direction 0.000000 0.000000 0.000000
      length 0.000000
      axis 0.0 0.0 -90.0 xyz
   end
   begin
      id 14
      name LeftHand_dum2
      direction 1.000000 0.000000 0.000000
      length 3.937000
      axis 0.0 0.0 -90.0 xyz
   end
   begin
      id 15
      name LeftHandThumb1
      direction 0.000000 0.000000 1.000000
      length 3.937000
      axis 0.0 0.0 -90.0 xyz
      dof rx rz ry
   end
   begin
      id 16
      name RightShoulder
      direction -1.000000 0.000000 0.000000
      length 7.531907
      axis 0.0 0.0 90.0 xyz
      dof rx ry rz
   end
   begin
      id 17
      name RightArm
      direction -1.000000 0.000000 0.000000
      length 10.229199
      axis 0.0 0.0 90.0 xyz
      dof rx ry rz
   end
   begin
      id 18
      name RightForeArm
      direction -1.000000 0.000000 0.000000
      length 8.673495
      axis 0.0 0.0 90.0 xyz
      dof ry rz rx
   end
   begin
      id 19
      name RightHand
      direction 0.000000 0.000000 0.000000
      length 0.000000
      axis 0.0 0.0 90.0 xyz
      dof rx ry rz
   end
   begin
      id 20
      name RightHand_dum1
      direction 0.000000 0.000000 0.000000
      length 0.000000
      axis 0.0 0.0 90.0 xyz
   end
   begin
      id 21
      name RightHand_dum2
      direction -1.000000 0.000000 0.000000
      length 3.937000
      axis 0.0 0.0 90.0 xyz
   end
   begin
      id 22
      name RightHandThumb1
      direction 0.000000 0.000000 1.000000
      length 3.937000
      axis 0.0 0.0 90.0 xyz
      dof rx rz ry
   end
   begin
      id 23
      name LeftUpLeg
      direction 0.000000 -1.000000 0.000000
      length 16.263388
      axis 0.0 0.0 0.0 xyz
      dof rx ry rz
   end
   begin
      id 24
      name LeftLeg
      direction 0.000000 -1.000000 0.000000
      length 14.328163
      axis 0.0 0.0 0.0 xyz
      dof rx ry rz
   end
   begin
      id 25
      name LeftFoot
      direction 0.000000 -0.258819 0.965926
      length 5.031290
      axis 15.0 0.0 0.0 xyz
      dof rx ry rz
   end
   begin
      id 26
      name LeftToeBase
      direction 0.000000 0.000000 1.000000
      length 2.952750
      axis 0.0 0.0 0.0 xyz
      dof rx ry rz
   end
   begin
      id 27
      name RightUpLeg
      direction 0.000000 -1.000000 0.000000
      length 16.263388
      axis 0.0 0.0 0.0 xyz
      dof rx ry rz
   end
   begin
      id 28
      name RightLeg
      direction 0.000000 -1.000000 0.000000
      length 14.328163
      axis 0.0 0.0 0.0 xyz
      dof rx ry rz
   end
   begin
      id 29
      name RightFoot
      direction 0.000000 -0.258819 0.965926
      length 5.031290
      axis 15.0 0.0 0.0 xyz
      dof rx ry rz
   end
   begin
      id 30
      name RightToeBase
      direction 0.000000 0.000000 1.000000
      length 2.952750
      axis 0.0 0.0 0.0 xyz
      dof rx ry rz
   end
:hierarchy
   begin
      root Spine_dum LeftUpLeg_dum RightUpLeg_dum
      Spine_dum Spine
      LeftUpLeg_dum LeftUpLeg
      RightUpLeg_dum RightUpLeg
      Spine Spine_dum1 Spine_dum2 Spine_dum3
      Spine_dum1 Head
      Spine_dum2 LeftShoulder
      Spine_dum3 RightShoulder
      LeftShoulder LeftArm
      LeftArm LeftForeArm
      LeftForeArm LeftHand
      LeftHand LeftHand_dum1 LeftHand_dum2
      LeftHand_dum1 LeftHandThumb1
      RightShoulder RightArm
      RightArm RightForeArm
      RightForeArm RightHand
      RightHand RightHand_dum1 RightHand_dum2
      RightHand_dum1 RightHandThumb1
      LeftUpLeg LeftLeg
      LeftLeg LeftFoot
      LeftFoot LeftToeBase
      RightUpLeg RightLeg
      RightLeg RightFoot
      RightFoot RightToeBase
   end

# File created by Blade
# Date/Time:  Wed Apr 08 14:55:03 2015
# Frame Rate: 120.000 fps
#------------------------------------------------------
:FULLY-SPECIFIED
:DEGREES
172
root 3.778553 32.641957 -15.442298 15.619529 0.410183 1.341627
Spine -11.114970 -4.950283 -2.968137
Head 13.192152 -5.868905 1.188191
LeftShoulder -23.124524 49.687978 3.785624
LeftArm 49.848966 21.116252 -69.093872
LeftForeArm 13.891040 0.000000 51.876336
LeftHand 6.821853 -0.000000 -2.698354
LeftHandThumb1 -26.253704 0.000000 33.147579
RightShoulder -8.698942 -15.383681 -16.167363
RightArm 9.090903 -30.108443 83.379159
RightForeArm -13.223101 -0.000000 58.674171
RightHand 10.221956 -0.000000 2.152650
RightHandThumb1 -24.326973 -0.000000 -32.862282
LeftUpLeg -18.896627 -6.670770 -0.905009
LeftLeg 7.805668 -0.000000 -0.000000
LeftFoot -6.751043 10.426485 -13.118295
LeftToeBase -7.648088 -0.000000 0.000000
RightUpLeg -11.989825 -3.493657 2.143073
RightLeg 25.063508 -0.000000 -0.000000
RightFoot -15.691853 -16.763936 14.110104
RightToeBase -12.359064 -0.000000 0.000000
173
root 3.748300 32.617076 -15.530419 15.631272 0.311939 1.554854
Spine -10.994696 -4.791889 -3.196178
Head 12.853210 -5.829899 1.044839
LeftShoulder -23.248417 49.716384 3.567127
LeftArm 49.950558 20.824314 -68.494562
LeftForeArm 14.004115 -0.000000 53.500708
LeftHand 6.789785 -0.000000 -2.648117
LeftHandThumb1 -26.253704 0.000000 33.147579
RightShoulder -8.652662 -15.364140 -16.277832
RightArm 9.213638 -30.794272 83.256389
RightForeArm -12.944238 -0.000000 60.114029
RightHand 10.109187 -0.000000 2.260745
RightHandThumb1 -24.326973 -0.000000 -32.862282
LeftUpLeg -19.496886 -7.106681 -0.950458
LeftLeg 8.696184 -0.000000 -0.000000
LeftFoot -7.189700 10.858685 -13.221507
LeftToeBase -7.645855 -0.000000 0.000000
RightUpLeg -11.641767 -3.661797 1.999970
RightLeg 24.226911 -0.000000 -0.000000
RightFoot -16.093300 -16.506356 14.201132
RightToeBase -12.062245 -0.000000 0.000000
174
root 3.714182 32.592947 -15.617595 15.613192 0.164773 1.705406
Spine -10.836860 -4.539131 -3.384191
Head 12.515316 -5.837096 0.896699
LeftShoulder -23.299953 49.712689 3.398435
LeftArm 50.064862 20.520597 -67.872010
LeftForeArm 14.046776 -0.000000 55.068782
LeftHand 6.724445 -0.000000 -2.505438
LeftHandThumb1 -26.253704 0.000000 33.147579
RightShoulder -8.662081 -15.341929 -16.356707
RightArm 9.429916 -31.465682 83.072561
RightForeArm -12.724403 0.000000 61.458575
RightHand 10.003059 -0.000000 2.276205
RightHandThumb1 -24.326973 -0.000000 -32.862282
LeftUpLeg -20.093338 -7.408826 -0.966602
LeftLeg 9.652361 -0.000000 -0.000000
LeftFoot -7.612385 11.245016 -13.237191
LeftToeBase -7.670680 -0.000000 0.000000
RightUpLeg -11.267361 -3.682094 1.902423
RightLeg 23.373399 -0.000000 -0.000000
RightFoot -16.491631 -16.527719 14.139349
RightToeBase -11.061168 -0.000000 0.000000
175
root 3.678550 32.573287 -15.713588 15.632644 -0.189216 1.884524
Spine -10.716316 -4.144154 -3.673942
Head 12.200418 -5.788909 0.778995
LeftShoulder -23.382732 49.737183 3.206809
LeftArm 50.224471 20.140414 -67.250514
LeftForeArm 14.079132 -0.000000 56.573150
LeftHand 6.690588 -0.000000 -2.549724
LeftHandThumb1 -26.253704 0.000000 33.147579
RightShoulder -8.610441 -15.231154 -16.425718
RightArm 9.621582 -32.100468 82.937813
RightForeArm -12.496531 0.000000 62.687201
RightHand 9.989732 -0.000000 2.283420
RightHandThumb1 -24.326973 -0.000000 -32.862282
LeftUpLeg -20.593785 -7.898442 -0.926751
LeftLeg 10.294332 -0.000000 -0.000000
LeftFoot -7.961850 11.924213 -13.493455
LeftToeBase -7.723472 -0.000000 0.000000
RightUpLeg -10.959973 -3.475288 1.730527
RightLeg 22.463011 -0.000000 -0.000000
RightFoot -16.836649 -16.564271 13.949401
RightToeBase -10.095229 -0.000000 0.000000
